<svg width="287" height="239" viewBox="0 0 287 239" fill="none" xmlns="http://www.w3.org/2000/svg">
<rect width="287" height="239" fill="#E5E5E5"/>
<path d="M203.5 55.5V36.5C247.367 54.4435 262.916 74.6301 280.5 122C284.312 153.502 278.754 161.226 258 161H48.5C22.6128 157.701 14.3011 150.371 31.5 109C81.7456 9.36212 120.597 3.19189 203.5 55.5Z" fill="#FFE178"/>
<path d="M203.5 55.5V36.5C247.367 54.4435 262.916 74.6301 280.5 122C284.312 153.502 278.754 161.226 258 161M203.5 55.5C120.597 3.19189 81.7456 9.36212 31.5 109C14.3011 150.371 22.6128 157.701 48.5 161H258M203.5 55.5C237.9 105.873 246.742 126.811 258 161" stroke="black" stroke-width="10"/>
<path d="M26 95.5C0.0286942 111.007 -1.43558 118.991 22 131C25.5116 99.4196 38.9401 82.4662 61 54C30.7009 43.0112 22.5635 51.3218 26 95.5Z" fill="#89FF87"/>
<path d="M240.5 78.5C232.39 51.5623 225.143 51.2211 210.5 60C228.843 84.3637 237.406 98.043 247.5 122.5C265.841 95.4784 265.526 85.2762 240.5 78.5Z" fill="#89FF87"/>
<path d="M26 95.5C0.0286942 111.007 -1.43558 118.991 22 131C25.5116 99.4196 38.9401 82.4662 61 54C30.7009 43.0112 22.5635 51.3218 26 95.5Z" stroke="black" stroke-width="10"/>
<path d="M240.5 78.5C232.39 51.5623 225.143 51.2211 210.5 60C228.843 84.3637 237.406 98.043 247.5 122.5C265.841 95.4784 265.526 85.2762 240.5 78.5Z" stroke="black" stroke-width="10"/>
<path d="M90.5 22C70.9154 13.2489 67.3063 21.8474 66.5 47.5C105.042 18.044 132.555 12.3024 200.5 47.5C189.963 11.979 177.333 6.25135 142.5 22C118.159 0.892162 106.33 -0.631548 90.5 22Z" fill="#A56607"/>
<path d="M267 129.5C260.166 122.147 256.334 123.145 249.5 129.5L258 148C271.02 146.416 272.47 142.057 267 129.5Z" fill="#A56607"/>
<path d="M90.5 22C70.9154 13.2489 67.3063 21.8474 66.5 47.5C105.042 18.044 132.555 12.3024 200.5 47.5C189.963 11.979 177.333 6.25135 142.5 22C118.159 0.892162 106.33 -0.631548 90.5 22Z" stroke="black" stroke-width="10"/>
<path d="M267 129.5C260.166 122.147 256.334 123.145 249.5 129.5L258 148C271.02 146.416 272.47 142.057 267 129.5Z" stroke="black" stroke-width="10"/>
<path d="M91 92.5C99.8942 78.2088 104.347 78.783 111.5 92.5M153 92.5C159.409 76.1309 164.369 75.6511 176 92.5M116 127C127.911 139.473 134.589 137.529 146.5 127" stroke="black" stroke-width="10"/>
<path d="M69.9629 213C82.6523 204.3 96.1096 205.657 108.463 213C112.294 229.08 110.693 233.229 101.963 233H69.9629C58.0817 232.518 56.3825 222.434 69.9629 213Z" fill="black"/>
<path d="M176.963 233C166.873 232.127 159.428 234.019 164.463 213C176.123 204.885 195.557 204.185 208.963 213C218.112 223.232 219.199 230.541 208.963 233H176.963Z" fill="black"/>
<path d="M108.463 161V213M108.463 213C96.1096 205.657 82.6523 204.3 69.9629 213C56.3825 222.434 58.0817 232.518 69.9629 233H101.963C110.693 233.229 112.294 229.08 108.463 213ZM164.463 161V213M164.463 213C159.428 234.019 166.873 232.127 176.963 233H208.963C219.199 230.541 218.112 223.232 208.963 213C195.557 204.185 176.123 204.885 164.463 213Z" stroke="black" stroke-width="10"/>
</svg>
